<?xml version="1.0" standalone="no"?>
<!DOCTYPE svg PUBLIC "-//W3C//DTD SVG 1.1//EN" "http://www.w3.org/Graphics/SVG/1.1/DTD/svg11.dtd" >
<svg>
<metadata>
Created by FontForge 20120731 at Tue Dec  9 06:06:43 2014
 By Orthosie Webhosting
Copyright (C) 1993; Type Market Ltd. Moscow, 119136, Box 20; phone:(095)1427712; Created by A.Kustov
</metadata>
<defs>
<font id="EuropeNormal" horiz-adv-x="562" >
  <font-face 
    font-family="EuropeNormal"
    font-weight="400"
    font-stretch="normal"
    units-per-em="1000"
    panose-1="0 0 0 0 0 0 0 0 0 0"
    ascent="800"
    descent="-200"
    x-height="524"
    cap-height="748"
    bbox="-11 -237 1137 885"
    underline-thickness="50"
    underline-position="-75"
    unicode-range="U+0020-2122"
  />
<missing-glyph horiz-adv-x="763" 
d="M47 0v763h669v-763h-669zM669 47v669h-575v-669h575z" />
    <glyph glyph-name=".notdef" horiz-adv-x="763" 
d="M47 0v763h669v-763h-669zM669 47v669h-575v-669h575z" />
    <glyph glyph-name=".null" horiz-adv-x="0" 
 />
    <glyph glyph-name="nonmarkingreturn" horiz-adv-x="238" 
 />
    <glyph glyph-name="space" unicode=" " horiz-adv-x="238" 
 />
    <glyph glyph-name="exclam" unicode="!" horiz-adv-x="268" 
d="M174 102v-102h-83v102h83zM179 749l-11 -543h-72l-9 543h92z" />
    <glyph glyph-name="quotedbl" unicode="&#x22;" horiz-adv-x="370" 
d="M134 450h-65l-14 299h93zM301 450h-67l-13 299h93z" />
    <glyph glyph-name="numbersign" unicode="#" horiz-adv-x="679" 
d="M435 260l-32 -223h-46l31 223h-132l-31 -223h-48l32 223h-140l7 45h139l18 125h-140l7 47h139l30 205h47l-29 -205h132l28 205h47l-29 -205h144l-7 -47h-143l-18 -125h143l-6 -45h-143zM412 430h-133l-17 -125h132z" />
    <glyph glyph-name="dollar" unicode="$" horiz-adv-x="687" 
d="M314 416v264h-37q-85 0 -114 -17q-43 -25 -43 -106q0 -90 38 -118q31 -23 120 -23h36zM377 344v-286h29q87 0 124 27q44 32 44 116q0 94 -43 122q-33 21 -136 21h-18zM377 -8v-76h-63v74q-158 0 -206 25q-79 41 -79 182v27h84q0 -111 33 -140q30 -26 140 -26h28v285
q-175 0 -229 50q-49 45 -49 143q0 128 67 175q55 38 188 38h23v69h63v-69q146 0 195 -30q69 -42 69 -180h-83q0 83 -22 110q-25 31 -103 31h-56v-264q151 0 203 -28q78 -42 78 -177q0 -131 -63 -178q-55 -41 -194 -41h-24z" />
    <glyph glyph-name="percent" unicode="%" horiz-adv-x="883" 
d="M194 373q-101 0 -132.5 28.5t-31.5 112.5v97q0 83 32 111.5t132 28.5q99 0 129.5 -27.5t30.5 -112.5v-97q0 -84 -30.5 -112.5t-129.5 -28.5zM306 500v123q0 57 -29 74q-22 13 -83 13q-63 0 -84 -12q-31 -18 -31 -75v-129q0 -55 30 -70q20 -10 85 -10q61 0 82 12
q30 17 30 74zM729 749l-507 -749h-51l505 749h53zM709 -1q-100 0 -131.5 28.5t-31.5 111.5v97q0 85 31 113t132 28q99 0 131 -29.5t32 -111.5v-97q0 -83 -31.5 -111.5t-131.5 -28.5zM822 125v124q0 57 -29 74q-22 13 -84 13t-84 -13q-30 -18 -30 -74v-129q0 -55 30 -70
q20 -10 84 -10t83 11q30 17 30 74z" />
    <glyph glyph-name="ampersand" unicode="&#x26;" horiz-adv-x="786" 
d="M579 330h83v-65q0 -50 -9 -100l131 -107l-46 -58l-110 91q-30 -64 -105 -85q-46 -13 -141 -13q-126 0 -172 9q-74 15 -108 64q-38 56 -38 172q0 108 45 151q31 30 107 41q-41 35 -54 61t-13 79q0 106 62 143q47 28 161 28q118 0 162 -31q55 -39 55 -151l-1 -41h-82l-1 27
q0 87 -28 107q-22 16 -117 16q-65 0 -89 -11q-38 -18 -38 -75q0 -42 13.5 -66t49.5 -52l281 -236l2 54v48zM269 384q-63 -16 -78 -24q-43 -23 -43 -121q0 -109 28.5 -141.5t135.5 -32.5h73q73 0 105 9q59 17 72 68z" />
    <glyph glyph-name="quotesingle" unicode="'" horiz-adv-x="205" 
d="M136 450h-68l-13 299h95z" />
    <glyph glyph-name="parenleft" unicode="(" horiz-adv-x="311" 
d="M258 756v-71q-72 0 -95 -36q-17 -26 -17 -94v-46v-415q0 -71 12 -98q20 -45 84 -45l16 1v-71l-23 -1q-108 0 -146 73q-27 52 -27 173v351q0 150 26 201q39 78 170 78z" />
    <glyph glyph-name="parenright" unicode=")" horiz-adv-x="311" 
d="M62 756v-71q72 0 95 -36q17 -26 17 -94v-46v-415q0 -71 -12 -98q-20 -45 -84 -45l-16 1v-71l23 -1q108 0 146 73q27 52 27 173v351q0 150 -26 201q-39 78 -170 78z" />
    <glyph glyph-name="asterisk" unicode="*" horiz-adv-x="687" 
d="M543 588l-153 -55l93 -132l-45 -32l-93 136l-100 -136l-44 32l96 132l-152 58l18 53l154 -56v162h55v-162l153 57z" />
    <glyph glyph-name="plus" unicode="+" 
d="M26 405h230v217h48v-217h232v-45h-232v-217h-48v217h-230v45z" />
    <glyph glyph-name="comma" unicode="," horiz-adv-x="227" 
d="M159 103v-110q0 -53 -13 -74q-18 -29 -64 -29l-22 1v42q49 0 49 53l-1 14h-37v103h88z" />
    <glyph glyph-name="hyphen" unicode="-" horiz-adv-x="579" 
d="M40 308h493v-47h-493v47z" />
    <glyph glyph-name="period" unicode="." horiz-adv-x="223" 
d="M156 101v-101h-89v101h89z" />
    <glyph glyph-name="slash" unicode="/" horiz-adv-x="726" 
d="M648 749l-579 -859h-61l577 859h63z" />
    <glyph glyph-name="zero" unicode="0" horiz-adv-x="687" 
d="M661 377q0 -226 -74 -309q-68 -77 -244 -77t-243 76q-74 83 -74 310q0 225 73 306q67 74 244 74q176 0 243 -73q75 -82 75 -307zM577 377q0 191 -45 249t-189 58q-145 0 -189 -58t-44 -249t45 -252t188 -61q142 0 188 62t46 251z" />
    <glyph glyph-name="one" unicode="1" horiz-adv-x="687" 
d="M441 749v-749h-79v685l-192 -211l-53 49l207 226h117z" />
    <glyph glyph-name="two" unicode="2" horiz-adv-x="689" 
d="M601 73v-73h-540v140q0 120 72 166q52 33 184.5 45.5t157.5 29.5q44 29 44 138q0 90 -40.5 127.5t-142.5 37.5q-114 0 -157 -40q-37 -35 -37 -119v-31h-81q0 151 58 207t219 56q138 0 200.5 -54.5t62.5 -184.5q0 -135 -55 -182q-48 -40 -197 -57q-126 -14 -153 -28
q-54 -28 -54 -119v-59h459z" />
    <glyph glyph-name="three" unicode="3" horiz-adv-x="689" 
d="M274 347v73h96q95 0 120.5 23.5t25.5 113.5q0 64 -37 93q-42 33 -146 33q-106 0 -143.5 -36.5t-37.5 -127.5h-80q0 131 58 184t202 53q141 0 204.5 -50t63.5 -149q0 -90 -27.5 -126.5t-95.5 -46.5q79 -10 110 -52q27 -37 27 -116q0 -132 -58.5 -177.5t-221.5 -45.5
q-139 0 -198 35q-78 46 -78 171l1 45h82v-44q0 -79 38 -106.5t154 -27.5q128 0 162.5 28t34.5 121q0 74 -34.5 103t-117.5 29h-104z" />
    <glyph glyph-name="four" unicode="4" horiz-adv-x="689" 
d="M532 749v-505h113v-72h-113v-172h-80v172h-422v100l376 477h126zM452 244v450l-352 -450h352z" />
    <glyph glyph-name="five" unicode="5" horiz-adv-x="687" 
d="M85 370v375h504v-73h-424v-221q30 39 89 53q39 9 107 9q136 0 196 -54t60 -184q0 -165 -53.5 -223.5t-216.5 -58.5q-154 0 -206 32q-72 45 -72 190h83q0 -96 33 -122.5t162 -26.5q104 0 142 30q44 34 44 132q0 126 -31 167q-34 45 -140 45q-115 0 -150.5 -14t-46.5 -56
h-80z" />
    <glyph glyph-name="six" unicode="6" horiz-adv-x="689" 
d="M348 458q140 0 198 -48q64 -53 64 -184q0 -133 -65 -185q-61 -49 -211 -49q-164 0 -216 48q-61 56 -61 238v108q0 231 54 301t237 70q137 0 191 -27q75 -38 75 -151l-1 -23h-80l1 17q0 69 -38.5 90t-147.5 21q-124 0 -166 -41t-42 -175v-82q18 40 52 54q44 18 156 18z
M140 226q0 -96 43 -130q40 -31 151 -31q109 0 151 33.5t42 126.5q0 95 -41 128t-152 33q-112 0 -153 -33t-41 -127z" />
    <glyph glyph-name="seven" unicode="7" horiz-adv-x="689" 
d="M600 749v-106l-363 -643h-100l394 675h-477v74h546z" />
    <glyph glyph-name="eight" unicode="8" horiz-adv-x="689" 
d="M337 350q-118 0 -156.5 -30t-38.5 -114t37.5 -112t158.5 -28t158 28t37 115q0 82 -36 110q-40 31 -160 31zM337 683q-112 0 -147.5 -27.5t-35.5 -100.5q0 -83 30 -106q35 -27 153 -27q121 0 156 29q30 25 30 104q0 72 -33 98q-38 30 -153 30zM187 390q-72 14 -98 58
q-20 34 -20 107q0 113 59 157t212 44q152 0 209.5 -43.5t57.5 -156.5q0 -72 -20 -106q-26 -45 -100 -60q72 -13 103 -59q28 -41 28 -116q0 -128 -52 -172q-59 -50 -229 -50q-168 0 -226 50q-53 46 -53 176q0 74 24 111q29 45 105 60z" />
    <glyph glyph-name="nine" unicode="9" horiz-adv-x="689" 
d="M324 290q-139 0 -198 48q-64 52 -64 183q0 133 63.5 184t212.5 51q156 0 211 -44q66 -53 66 -210v-140q0 -232 -53 -300.5t-238 -68.5q-137 0 -190 26q-76 37 -76 150l1 23h80l-1 -19q0 -68 40 -89q35 -18 146 -18q125 0 166.5 40.5t41.5 172.5v83q-18 -40 -52 -54
q-44 -18 -156 -18zM532 522q0 96 -41.5 128.5t-152.5 32.5q-109 0 -151 -33.5t-42 -126.5q0 -95 41 -128t152 -33q112 0 153 33t41 127z" />
    <glyph glyph-name="colon" unicode=":" horiz-adv-x="223" 
d="M156 103v-102h-89v102h89zM156 524v-102h-89v102h89z" />
    <glyph glyph-name="semicolon" unicode=";" horiz-adv-x="224" 
d="M156 102v-109q0 -53 -13 -74q-18 -29 -64 -29l-22 1v42q49 0 49 53l-1 14h-37v102h88zM68 422v102h88v-102h-88z" />
    <glyph glyph-name="less" unicode="&#x3c;" horiz-adv-x="561" 
d="M523 644v-88l-393 -180l393 -181v-87l-487 230v76z" />
    <glyph glyph-name="equal" unicode="=" 
d="M26 485h512v-46h-511zM26 326h512v-46h-511z" />
    <glyph glyph-name="greater" unicode="&#x3e;" 
d="M38 108v87l393 181l-393 181v87l487 -231v-75z" />
    <glyph glyph-name="question" unicode="?" horiz-adv-x="584" 
d="M300 216h-82q0 84 21 117t94.5 60.5t95 53.5t21.5 97q0 81 -35 110t-126 29q-97 0 -125 -25q-24 -21 -24 -92v-50h-79q0 143 42.5 190.5t182.5 47.5q132 0 181 -34q62 -43 62 -167q0 -117 -56 -171q-30 -29 -123 -63q-28 -10 -39 -32t-11 -52v-19zM301 102v-102h-88v102
h88z" />
    <glyph glyph-name="at" unicode="@" horiz-adv-x="707" 
d="M462 529h54v-256q0 -37 5 -52q9 -28 39 -28q29 0 40 29q16 41 16 162q0 164 -40 197t-235 33q-172 0 -209 -41.5t-37 -225.5q0 -191 41.5 -239.5t211.5 -48.5q143 0 178 11q19 7 28 26l39 -28q-20 -35 -61.5 -46t-167.5 -11q-192 0 -245 46q-72 62 -72 292q0 203 57 260
q53 53 237 53q204 0 263 -51t59 -224q0 -147 -27 -198q-21 -39 -73 -39q-34 0 -59.5 15t-31.5 46q-15 -36 -56 -52q-31 -12 -79 -12q-89 0 -121 56q-23 41 -23 139q0 100 26 139q33 50 126 50q41 0 70.5 -10.5t46.5 -40.5v49zM461 372q0 61 -21 86q-24 28 -84 28
q-67 0 -85.5 -25.5t-18.5 -118.5q0 -94 17.5 -121t72.5 -27q75 0 99 30q20 25 20 99v49z" />
    <glyph glyph-name="A" unicode="A" horiz-adv-x="720" 
d="M26 0l273 749h121l279 -749h-89l-56 154h-378l-60 -154h-90zM527 227l-166 460l-165 -460h331z" />
    <glyph glyph-name="B" unicode="B" horiz-adv-x="692" 
d="M154 349v-274h231q103 0 135 21q40 27 40 115q0 89 -27 113.5t-113 24.5h-266zM154 675v-253h238q84 0 115 28t31 107q0 68 -24 93t-92 25h-268zM453 0h-382v749h361q99 0 144.5 -42.5t45.5 -142.5q0 -73 -15 -106q-20 -44 -79 -65q70 -19 95 -62q21 -36 21 -116
q0 -107 -41 -158q-46 -57 -150 -57z" />
    <glyph glyph-name="C" unicode="C" horiz-adv-x="663" 
d="M557 250h81q0 -148 -61 -203t-236 -55t-234 70q-65 77 -65 310q0 232 64 311q60 74 235 74q172 0 233 -59q54 -52 54 -187l-81 1q-11 106 -41 135q-38 37 -165 37q-129 0 -172 -60.5t-43 -251.5t42 -249t173 -58t173.5 37t42.5 148z" />
    <glyph glyph-name="D" unicode="D" horiz-adv-x="733" 
d="M71 0v749h346q167 0 228 -108q46 -81 46 -267q0 -183 -42 -264q-57 -110 -210 -110h-368zM154 75h245q113 0 160.5 63t47.5 236t-47.5 237t-161.5 64h-244v-600z" />
    <glyph glyph-name="E" unicode="E" horiz-adv-x="595" 
d="M152 420h381v-73h-381v-272h397v-75h-480v749h482v-74h-399v-255z" />
    <glyph glyph-name="F" unicode="F" horiz-adv-x="545" 
d="M153 413h365v-73h-365v-340h-83v749h457v-74h-374v-262z" />
    <glyph glyph-name="G" unicode="G" horiz-adv-x="695" 
d="M358 683q-135 0 -178 -58q-46 -62 -46 -253t44 -249t180 -58q134 0 179 48t45 182v27h-240v72h324v-87q0 -189 -63 -252t-244 -63q-185 0 -247 78.5t-62 301.5q0 222 63.5 303t244.5 81q188 0 251 -54q54 -46 54 -173h-81q0 94 -42 124t-182 30z" />
    <glyph glyph-name="H" unicode="H" horiz-adv-x="749" 
d="M155 418h438v330h83v-748h-83v345h-438v-345h-83v748h83v-330z" />
    <glyph glyph-name="I" unicode="I" horiz-adv-x="223" 
d="M155 748v-747h-85v747h85z" />
    <glyph glyph-name="J" unicode="J" horiz-adv-x="563" 
d="M491 749v-543q0 -105 -46 -155q-54 -59 -184 -59q-138 0 -188 52q-44 46 -44 162v67h82v-55q0 -90 29.5 -120.5t120.5 -30.5q78 0 112.5 35.5t34.5 116.5v530h83z" />
    <glyph glyph-name="K" unicode="K" horiz-adv-x="699" 
d="M156 749v-327h75l305 327h112l-344 -362l384 -387h-115l-342 347h-75v-347h-83v749h83z" />
    <glyph glyph-name="L" unicode="L" horiz-adv-x="560" 
d="M161 749v-673h378v-76h-462v749h84z" />
    <glyph glyph-name="M" unicode="M" horiz-adv-x="964" 
d="M217 750l264 -643l266 643h137v-750h-83v689l-283 -689h-72l-285 682v-682h-83v750h139z" />
    <glyph glyph-name="N" unicode="N" horiz-adv-x="782" 
d="M713 749v-749h-132l-422 677v-677h-83v749h132l422 -684v684h83z" />
    <glyph glyph-name="O" unicode="O" horiz-adv-x="711" 
d="M43 374q0 -236 61.5 -309t252.5 -73q192 0 253.5 72.5t61.5 309.5t-61 310t-252 73q-193 0 -254.5 -72.5t-61.5 -310.5zM127 374q0 203 38 256.5t193 53.5q152 0 191 -54t39 -256q0 -200 -39 -254.5t-191 -54.5t-191.5 54t-39.5 255z" />
    <glyph glyph-name="P" unicode="P" horiz-adv-x="667" 
d="M154 293v-293h-83v749h357q108 0 153.5 -50.5t45.5 -164.5q0 -138 -53.5 -189.5t-197.5 -51.5h-222zM154 366h199q109 0 145 25q45 31 45 127q0 87 -22 119q-27 39 -104 39h-263v-310z" />
    <glyph glyph-name="Q" unicode="Q" horiz-adv-x="743" 
d="M726 91l-34 -57l-56 38q-43 -51 -112 -68q-50 -12 -165 -12q-192 0 -252 71q-63 74 -63 311q0 236 62 309t252 73q194 0 256.5 -72t62.5 -310v-33q0 -78 -2.5 -129.5t-11.5 -77.5zM372 326l217 -143q2 11 2.5 78t1.5 113q0 200 -41.5 254.5t-194.5 54.5
q-152 0 -190.5 -53.5t-38.5 -255.5q0 -201 39 -254.5t191 -53.5q80 0 108 3q70 8 101 47l-233 151z" />
    <glyph glyph-name="R" unicode="R" horiz-adv-x="699" 
d="M407 300h-254v-300h-83v749h356q112 0 165.5 -51.5t53.5 -167.5q0 -90 -18 -127q-27 -54 -111 -70q61 0 91 -40q27 -36 27 -103v-190h-84v170q0 72 -34.5 101t-108.5 29zM153 371h245q89 0 123 27q39 31 39 114q0 86 -31 124t-103 38h-273v-303z" />
    <glyph glyph-name="S" unicode="S" horiz-adv-x="629" 
d="M35 231h83q0 -111 33 -138t168 -27q125 0 164 33q32 27 32 109q0 78 -34 103q-38 28 -160 28q-146 0 -207 40q-73 48 -73 169q0 113 65 161t213 48q138 0 195 -37q70 -46 70 -167l1 -11h-82q0 84 -35.5 113t-148.5 29q-119 0 -157.5 -28t-38.5 -103q0 -79 46.5 -107
t191.5 -28q124 0 177 -41q61 -47 61 -162q0 -130 -60.5 -176t-219.5 -46q-153 0 -208 30q-76 42 -76 173v35z" />
    <glyph glyph-name="T" unicode="T" horiz-adv-x="601" 
d="M257 0v673h-245v76h572v-76h-243v-673h-84z" />
    <glyph glyph-name="U" unicode="U" horiz-adv-x="736" 
d="M158 749v-525q0 -102 37.5 -129.5t173.5 -27.5q137 0 174.5 27.5t37.5 129.5v525h83v-527q0 -152 -75 -198q-54 -33 -221 -33q-161 0 -216 33q-77 46 -77 198v527h83z" />
    <glyph glyph-name="V" unicode="V" horiz-adv-x="643" 
d="M552 749h91l-265 -749h-122l-267 749h90l239 -682z" />
    <glyph glyph-name="W" unicode="W" horiz-adv-x="1151" 
d="M1136 749l-237 -749h-128l-196 674l-202 -674h-125l-231 749h88l204 -684l203 684h125l200 -684l210 684h89z" />
    <glyph glyph-name="X" unicode="X" horiz-adv-x="686" 
d="M136 749h-100l246 -361l-268 -388h102l232 344l232 -344h102l-268 388l246 361h-100l-212 -320z" />
    <glyph glyph-name="Y" unicode="Y" horiz-adv-x="673" 
d="M662 749l-283 -436v-313h-84v313l-275 436h93l227 -358l227 358h95z" />
    <glyph glyph-name="Z" unicode="Z" horiz-adv-x="637" 
d="M601 749v-80l-472 -594h482v-75h-584v74l469 601h-454v74h559z" />
    <glyph glyph-name="bracketleft" unicode="[" horiz-adv-x="311" 
d="M61 749h192v-64h-109v-733h109v-65h-192v862z" />
    <glyph glyph-name="backslash" unicode="\" horiz-adv-x="726" 
d="M79 749h63l577 -859h-61z" />
    <glyph glyph-name="bracketright" unicode="]" horiz-adv-x="311" 
d="M250 -113h-192v65h109v732h-109v65h192v-862z" />
    <glyph glyph-name="asciicircum" unicode="^" 
d="M118 420h-82l196 330h99l196 -330h-83l-163 271z" />
    <glyph glyph-name="underscore" unicode="_" 
d="M0 -81h562v-57h-562v57z" />
    <glyph glyph-name="grave" unicode="`" 
d="M227 742l148 -113l-26 -41l-161 99z" />
    <glyph glyph-name="a" unicode="a" horiz-adv-x="569" 
d="M424 153q0 68 -32.5 85.5t-142.5 17.5q-65 0 -90 -16q-31 -20 -31 -74q0 -66 27 -90t95 -24q94 0 125 13q49 20 49 88zM423 256v75q0 95 -27 119.5t-126 24.5q-72 0 -98 -15.5t-26 -64.5l1 -15h-81q0 98 59 130q42 23 149 23q122 0 169 -31q60 -39 60 -154v-348h-75l3 66
q-27 -49 -60 -62.5t-116 -13.5q-107 0 -152 30q-55 37 -55 138q0 95 54 130q44 29 146 29q90 0 123.5 -13t51.5 -48z" />
    <glyph glyph-name="b" unicode="b" horiz-adv-x="568" 
d="M146 259q0 -131 20 -163q26 -41 128 -41q116 0 135 80q8 33 8 124q0 123 -19 158q-28 52 -128 52q-92 0 -121 -51q-23 -40 -23 -159zM141 67l3 -67h-78v748h80v-284q27 37 59 52q39 18 112 18q126 0 169 -77q32 -57 32 -197q0 -144 -33 -198q-44 -72 -176 -72
q-69 0 -103.5 16t-64.5 61z" />
    <glyph glyph-name="c" unicode="c" horiz-adv-x="550" 
d="M426 190h77q0 -118 -53 -161q-48 -39 -173 -39q-131 0 -178 57t-47 214q0 156 46.5 214t176.5 58q109 0 159 -32q60 -38 60 -131v-17h-76q0 66 -25 89q-29 26 -118 26q-88 0 -115 -38t-27 -167q0 -127 28.5 -167.5t115.5 -40.5q92 0 120.5 26.5t28.5 108.5z" />
    <glyph glyph-name="d" unicode="d" horiz-adv-x="576" 
d="M422 259q0 119 -23 159q-30 51 -122 51q-99 0 -126 -51q-20 -37 -20 -159q0 -94 7 -123q19 -81 136 -81q102 0 127 40q21 33 21 164zM422 464v284h80v-748h-78l3 67q-30 -46 -63.5 -61.5t-104.5 -15.5q-131 0 -175 72q-34 55 -34 198q0 140 31 196q43 78 169 78
q74 0 112 -17q32 -14 60 -53z" />
    <glyph glyph-name="e" unicode="e" horiz-adv-x="559" 
d="M508 247h-377q0 -119 28.5 -156.5t121.5 -37.5t120.5 17.5t27.5 72.5v17h79q0 -105 -58 -141q-46 -29 -169 -29q-132 0 -180.5 57t-48.5 216q0 152 52 211t176 59q122 0 175 -55t53 -191v-40zM429 308q0 91 -32 126.5t-117 35.5t-116.5 -35.5t-31.5 -126.5h297z" />
    <glyph glyph-name="f" unicode="f" horiz-adv-x="302" 
d="M305 525v-64h-137v-461h-80v461h-80v64h80v78q0 87 39.5 121.5t128.5 34.5l49 -3v-65q-21 3 -43 3h-14q-45 0 -62.5 -19.5t-17.5 -65.5v-84h137z" />
    <glyph glyph-name="g" unicode="g" horiz-adv-x="567" 
d="M423 263q0 117 -24 156q-30 48 -124 48q-117 0 -135 -75q-8 -33 -8 -129q0 -122 19 -157q27 -51 127 -51q92 0 121 50q24 41 24 158zM431 456l-4 67h76v-557q0 -120 -48 -160.5t-181 -40.5q-113 0 -154 29q-52 36 -52 144h74q0 -68 28 -90q23 -18 94 -18q94 0 124 20
q39 26 39 109v105q-22 -44 -73 -61q-39 -13 -99 -13q-120 0 -166 68q-38 56 -38 183q0 153 29 208q44 83 180 83q59 0 96 -14q46 -18 75 -62z" />
    <glyph glyph-name="h" unicode="h" horiz-adv-x="576" 
d="M145 748v-283q24 43 71 58q32 10 96 10q112 0 155 -40t43 -153v-340h-80v355q0 70 -26.5 92.5t-98.5 22.5q-95 0 -127.5 -37.5t-32.5 -133.5v-299h-80v748h80z" />
    <glyph glyph-name="i" unicode="i" horiz-adv-x="215" 
d="M148 749v-86h-80v86h80zM148 524v-524h-80v524h80z" />
    <glyph glyph-name="j" unicode="j" horiz-adv-x="232" 
d="M155 750v-87h-80v87h80zM75 525h80v-573q0 -72 -21 -108q-28 -48 -96 -48q-18 0 -38 6v55l10 -1q33 0 49 17.5t16 78.5v573z" />
    <glyph glyph-name="k" unicode="k" horiz-adv-x="524" 
d="M162 749v-436h32l189 211h96l-223 -241l264 -283h-104l-222 252h-32v-252h-79v749h79z" />
    <glyph glyph-name="l" unicode="l" horiz-adv-x="215" 
d="M148 749v-749h-80v749h80z" />
    <glyph glyph-name="m" unicode="m" horiz-adv-x="918" 
d="M147 301v-301h-80v524h75v-79q25 47 70.5 68t102.5 21q58 0 98 -17q52 -22 69 -72q26 47 73 68t106 21q103 0 145.5 -42.5t42.5 -144.5v-347h-80v352q0 68 -24.5 92.5t-93.5 24.5q-87 0 -124 -37q-29 -29 -29 -85v-347h-80v346q0 73 -24 98t-99 25q-86 0 -117 -38.5
t-31 -129.5z" />
    <glyph glyph-name="n" unicode="n" horiz-adv-x="579" 
d="M146 321v-321h-80v524h75v-67q28 44 77 62q39 14 102 14q107 0 149.5 -39.5t42.5 -146.5v-347h-80v339q0 79 -24 104t-104 25q-79 0 -118.5 -34t-39.5 -113z" />
    <glyph glyph-name="o" unicode="o" horiz-adv-x="563" 
d="M513 262q0 -162 -49 -217t-183 -55q-132 0 -181 55.5t-49 215.5q0 161 48.5 216.5t181.5 55.5t182.5 -55t49.5 -216zM432 262q0 129 -29.5 167.5t-121.5 38.5q-91 0 -120 -39t-29 -168q0 -128 29.5 -167t119.5 -39q91 0 121 38.5t30 168.5z" />
    <glyph glyph-name="p" unicode="p" horiz-adv-x="573" 
d="M148 265q0 -120 22 -159q29 -51 121 -51q99 0 127 51q21 38 21 159q0 118 -18 152q-28 52 -126 52q-100 0 -127 -47q-20 -35 -20 -157zM148 60v-286h-80v750h78l-3 -67q28 43 69 60t98 17q132 0 176 -72q34 -55 34 -198q0 -139 -32 -196q-44 -78 -170 -78q-61 0 -96 12
q-47 16 -74 58z" />
    <glyph glyph-name="q" unicode="q" horiz-adv-x="573" 
d="M425 265q0 121 -20 156q-28 48 -127 48q-98 0 -125 -51q-19 -35 -19 -153q0 -122 19 -158q28 -52 127 -52q91 0 121 51q24 41 24 159zM430 457l-3 67h78v-750h-80v286q-26 -40 -75 -57q-39 -13 -97 -13q-126 0 -169 77q-31 56 -31 197q0 143 34 198q44 72 176 72
q57 0 97.5 -17t69.5 -60z" />
    <glyph glyph-name="r" unicode="r" horiz-adv-x="442" 
d="M146 349v-349h-80v524h78l-3 -61q22 37 60 55.5t84 18.5q153 0 153 -156v-31h-78v39q0 46 -21.5 64.5t-69.5 18.5q-123 0 -123 -123z" />
    <glyph glyph-name="s" unicode="s" horiz-adv-x="537" 
d="M50 165h75q0 -69 30.5 -91t113.5 -22q87 0 115.5 18.5t28.5 79.5q0 42 -32.5 63t-107.5 21q-105 0 -155 26q-68 35 -68 123q0 82 46 116t161 34q107 0 156 -21q66 -29 66 -105v-19h-79q0 45 -24 62q-29 21 -111 21t-109.5 -16.5t-27.5 -63.5q0 -52 28 -70t125 -18
q103 0 153 -33q58 -38 58 -125q0 -92 -52 -125q-47 -30 -167 -30q-125 0 -169 30q-54 37 -54 145z" />
    <glyph glyph-name="t" unicode="t" horiz-adv-x="388" 
d="M357 524v-64h-202v-321q0 -48 14 -65t60 -17t60 17t14 65v46h75q0 -117 -24 -152q-28 -41 -126 -41q-88 0 -120.5 31.5t-32.5 115.5v321h-69v64h69v127h80v-127h202z" />
    <glyph glyph-name="u" unicode="u" horiz-adv-x="571" 
d="M424 215v309h79v-524h-73v69q-31 -47 -77 -64q-37 -14 -103 -14q-97 0 -138 35q-44 38 -44 131v367h79v-349q0 -70 24.5 -94.5t95.5 -24.5q92 0 124.5 34.5t32.5 124.5z" />
    <glyph glyph-name="v" unicode="v" horiz-adv-x="476" 
d="M383 524l-146 -465l-144 465h-85l175 -524h110l175 524h-85z" />
    <glyph glyph-name="w" unicode="w" horiz-adv-x="763" 
d="M757 524l-147 -524h-114l-113 469l-113 -469h-116l-143 524h81l120 -471l115 471h114l114 -471l120 471h82z" />
    <glyph glyph-name="x" unicode="x" horiz-adv-x="476" 
d="M442 524h-92l-119 -192l-119 192h-92l167 -250l-187 -274h96l135 212l135 -212h96l-187 274z" />
    <glyph glyph-name="y" unicode="y" horiz-adv-x="469" 
d="M373 524h81l-161 -594q-26 -96 -61.5 -131.5t-97.5 -35.5q-25 0 -45 6v64q15 -4 30 -4q45 0 64.5 29t50.5 142h-34l-191 524h80l164 -466z" />
    <glyph glyph-name="z" unicode="z" horiz-adv-x="453" 
d="M50 525h379v-72l-313 -389h313v-63h-406v73l313 387h-286v64z" />
    <glyph glyph-name="braceleft" unicode="{" horiz-adv-x="561" 
d="M243 276q36 -20 50 -55q11 -28 11 -75v-175q0 -62 22.5 -85.5t84.5 -23.5v-72q-108 0 -145 27q-47 34 -47 140v179q0 46 -11 68q-15 29 -54 40v67q35 10 50 36.5t15 67.5v196q0 89 46 123q39 29 130 29l16 -1v-77q-59 0 -83 -22t-24 -81v-180q0 -49 -10 -74
q-13 -32 -51 -52z" />
    <glyph glyph-name="bar" unicode="|" horiz-adv-x="561" 
d="M325 -186h-86v935h86v-935z" />
    <glyph glyph-name="braceright" unicode="}" horiz-adv-x="561" 
d="M318 277q-35 20 -47.5 51.5t-12.5 78.5v175q0 62 -23.5 85.5t-83.5 23.5v72q109 0 144 -24q48 -33 48 -143v-179q0 -45 13.5 -71t51.5 -38v-66q-37 -10 -51 -36t-14 -68v-196q0 -88 -45 -122q-40 -30 -131 -30l-16 1v75q59 0 83 23t24 82v180q0 49 11.5 77.5t48.5 48.5z
" />
    <glyph glyph-name="asciitilde" unicode="~" horiz-adv-x="561" 
d="M57 293l-47 37q27 57 59 87q41 39 95 39q43 0 118 -41t119 -41q33 0 61 27q19 18 40 57l47 -37q-26 -54 -61 -86q-44 -40 -95 -40q-43 0 -115 39t-110 43q-37 0 -66 -25q-22 -19 -45 -59z" />
    <glyph glyph-name="nonbreakingspace" unicode="&#xa0;" horiz-adv-x="561" 
d="M68 -1h286q77 0 113.5 35.5t36.5 120.5q0 153 -161 153h-197v215h-78v-524zM146 60v187h138q86 0 113.5 -18t27.5 -78q0 -58 -24 -74.5t-115 -16.5h-140z" />
    <glyph glyph-name="exclamdown" unicode="&#xa1;" horiz-adv-x="268" 
d="M174 647v102h-83v-102h83zM179 0l-11 542h-72l-9 -542h92z" />
    <glyph glyph-name="sterling" unicode="&#xa3;" horiz-adv-x="358" 
d="M154 103v-110q0 -53 -13 -74q-18 -29 -65 -29l-22 1v42q28 0 38.5 11.5t10.5 41.5l-1 14h-37v103h89zM311 103v-110q0 -53 -13 -74q-18 -29 -65 -29l-22 1v42q28 0 39 12t11 41l-1 14h-37v103h88z" />
    <glyph glyph-name="currency" unicode="&#xa4;" horiz-adv-x="565" 
d="M565 749l-509 -749h-56l506 749h59z" />
    <glyph glyph-name="yen" unicode="&#xa5;" horiz-adv-x="687" 
d="M504 510h102v-69h-145l-69 -111h214v-69h-224v-261h-84v261h-216v69h206l-67 111h-139v69h98l-143 239h98l208 -351l207 351h100z" />
    <glyph glyph-name="brokenbar" unicode="&#xa6;" horiz-adv-x="687" 
d="M411 497l-87 -493q-17 -92 -50 -122q-37 -34 -133 -34q-15 0 -30.5 1t-31.5 4l11 64q26 -4 36.5 -4.5t21.5 -0.5q49 0 68 18t27 68l88 499h-101l11 65h102l20 115q17 90 54.5 122.5t124.5 32.5l67 -2l-12 -64l-58 2q-50 0 -68 -17.5t-27 -67.5l-21 -121h138l-11 -65h-139
z" />
    <glyph glyph-name="section" unicode="&#xa7;" horiz-adv-x="687" 
d="M440 352l-162 47q-21 7 -31.5 10t-23.5 3q-35 0 -50.5 -28.5t-15.5 -69.5q0 -52 16 -70t67 -32l169 -47q13 -3 28.5 -6.5t24.5 -3.5q42 0 58 36q12 26 12 79q0 37 -29 57q-15 10 -63 25zM426 84l-230 61q-70 20 -91 52.5t-21 109.5q0 58 15 85q19 35 70 46
q-34 22 -45.5 57t-11.5 84q0 114 50 148q44 30 185 30q142 0 184 -28q56 -37 56 -170h-74q0 85 -29 107t-137 22q-107 0 -133 -17.5t-26 -82.5q0 -73 33 -90q14 -8 68 -23l167 -52q70 -19 92 -31q54 -30 54 -130q0 -49 -14 -79q-17 -35 -58 -54q47 -21 62 -60q11 -28 11 -90
q0 -115 -52 -154t-204 -39q-149 0 -197 31q-63 41 -63 177h76v-32q0 -68 35.5 -86t148.5 -18q102 0 141 22.5t39 84.5q0 64 -19 85q-15 17 -82 34z" />
    <glyph glyph-name="dieresis" unicode="&#xa8;" horiz-adv-x="595" 
d="M151 420h382v-74h-382v-272h398v-74h-480v749h482v-75h-400v-254zM264 799h-80v86h80v-86zM335 799v86h80v-86h-80z" />
    <glyph glyph-name="copyright" unicode="&#xa9;" horiz-adv-x="879" 
d="M647 332q-8 -84 -64.5 -135t-140.5 -51q-96 0 -155 65t-59 162q0 99 58.5 165.5t156.5 66.5q74 0 132 -41.5t66 -112.5h-47q-11 51 -54.5 78t-97.5 27q-73 0 -117 -56q-40 -51 -40 -127q0 -75 41.5 -126t115.5 -51q65 0 108 36t51 100h46zM440 761q158 0 272 -114
t114 -273t-113 -273t-273 -114t-273.5 113.5t-113.5 273.5t113.5 273.5t273.5 113.5zM440 717q-141 0 -240.5 -100.5t-99.5 -242.5q0 -141 99.5 -242.5t240.5 -101.5q140 0 239.5 101.5t99.5 242.5q0 142 -98.5 242.5t-240.5 100.5z" />
    <glyph glyph-name="ordfeminine" unicode="&#xaa;" horiz-adv-x="681" 
d="M547 528h81q0 135 -61 182t-226 47q-179 0 -237 -72q-61 -76 -61 -313q0 -236 57 -308t241 -72q183 0 243 52q55 47 55 186h-83q0 -103 -38.5 -134t-176.5 -31t-175.5 49.5t-37.5 232.5h382v73h-382q0 163 43.5 213.5t172.5 50.5q122 0 159 -31q33 -28 44 -125z" />
    <glyph glyph-name="guillemotleft" unicode="&#xab;" horiz-adv-x="503" 
d="M191 575l58 -35l-118 -251l132 -253l-56 -36l-150 289zM376 575l57 -35l-118 -251l131 -253l-54 -36l-152 289z" />
    <glyph glyph-name="logicalnot" unicode="&#xac;" horiz-adv-x="561" 
d="M439 0v235h-403v76h487v-311h-84z" />
    <glyph glyph-name="minus" unicode="&#xad;" 
d="M138 646h278v-64h-278v64z" />
    <glyph glyph-name="registered" unicode="&#xae;" horiz-adv-x="879" 
d="M327 332v-182h-51v455h217q72 0 102.5 -29.5t30.5 -102.5q0 -58 -9 -77q-15 -33 -69 -43q39 -4 55.5 -26t16.5 -62v-116h-51v105q0 43 -20.5 60.5t-65.5 17.5h-156zM327 374l149 1q55 0 76.5 17t21.5 68q0 58 -11 75q-16 25 -68 25h-168v-186zM440 761q158 0 272 -114
t114 -273t-113 -273t-273 -114t-273.5 113.5t-113.5 273.5t113.5 273.5t273.5 113.5zM440 717q-141 0 -240.5 -100.5t-99.5 -242.5q0 -141 99.5 -242.5t240.5 -101.5q140 0 239.5 101.5t99.5 242.5q0 142 -98.5 242.5t-240.5 100.5z" />
    <glyph glyph-name="macron" unicode="&#xaf;" horiz-adv-x="243" 
d="M89 799h-80v86h80v-86zM161 799v86h80v-86h-80zM167 749v-748h-84v748h84z" />
    <glyph glyph-name="degree" unicode="&#xb0;" 
d="M440 586q0 -66 -47.5 -112.5t-111.5 -46.5q-63 0 -111 46t-48 110q0 68 45.5 115.5t113.5 47.5q65 0 112 -47t47 -113zM398 586q0 48 -34.5 83.5t-82.5 35.5t-82.5 -35.5t-34.5 -84.5q0 -47 34 -82t82 -35t83 35t35 83z" />
    <glyph glyph-name="plusminus" unicode="&#xb1;" 
d="M26 420h230v217h48v-217h232v-47h-232v-213h-48v213h-230v47zM26 111h510v-48h-510v48z" />
    <glyph glyph-name="twosuperior" unicode="&#xb2;" horiz-adv-x="206" 
d="M147 748v-748h-84v748h84z" />
    <glyph glyph-name="threesuperior" unicode="&#xb3;" horiz-adv-x="215" 
d="M148 749v-86h-80v86h80zM148 524v-524h-80v524h80z" />
    <glyph glyph-name="acute" unicode="&#xb4;" 
d="M336 742l39 -55l-160 -99l-27 41z" />
    <glyph glyph-name="mu" unicode="&#xb5;" horiz-adv-x="601" 
d="M70 -187v724h81v-303q0 -49 6.5 -80.5t30.5 -56.5q44 -47 109 -47q71 0 114 63q38 56 38 130v294h81v-537h-81v105q-20 -54 -60 -86.5t-94 -32.5q-92 0 -144 82v-255h-81z" />
    <glyph glyph-name="paragraph" unicode="&#xb6;" horiz-adv-x="689" 
d="M626 -210h-75v889h-89v-889h-76v503h-118q-168 0 -220 54q-41 43 -41 169q0 143 43 185q49 48 218 48h358v-959zM386 364v315h-169q-83 0 -106.5 -28.5t-23.5 -127.5q0 -95 35 -127t139 -32h125z" />
    <glyph glyph-name="periodcentered" unicode="&#xb7;" horiz-adv-x="687" 
d="M388 324v-101h-89v101h89z" />
    <glyph glyph-name="periodcentered" unicode="&#x2219;" horiz-adv-x="687" 
d="M388 324v-101h-89v101h89z" />
    <glyph glyph-name="cedilla" unicode="&#xb8;" horiz-adv-x="564" 
d="M513 248h-377q0 -119 28.5 -156t121.5 -37t120.5 17t27.5 72v17h79q0 -105 -58 -141q-45 -28 -169 -28q-133 0 -181 56t-48 216q0 152 52 211t176 59q122 0 175 -55t53 -191v-40zM434 309q0 91 -32 126.5t-117 35.5t-116.5 -35.5t-31.5 -126.5h297zM250 663h-80v86h80
v-86zM322 663v86h80v-86h-80z" />
    <glyph glyph-name="onesuperior" unicode="&#xb9;" horiz-adv-x="1203" 
d="M710 749v-749h-137l-421 677v-677h-82v749h137l421 -684v684h82zM768 117h358v-44h-358v44zM800 357q0 94 28.5 125.5t119.5 31.5q89 0 118 -33t29 -128v-18q0 -87 -21 -115q-28 -37 -120 -37q-84 0 -119 31t-35 115v28zM855 357v-31q0 -30 3.5 -53t15.5 -33q8 -7 21 -10
t26 -3q76 0 96.5 17.5t20.5 84.5v41q0 56 -10 73q-15 26 -65 26h-25q-27 0 -40.5 -3t-22.5 -9q-14 -12 -17 -42t-3 -43v-15z" />
    <glyph glyph-name="ordmasculine" unicode="&#xba;" horiz-adv-x="543" 
d="M424 160h78q0 -93 -47.5 -131t-178.5 -38q-133 0 -179.5 56.5t-46.5 216.5q0 157 48 213t176 56q114 0 159 -26q60 -35 60 -134h-75q-8 60 -35.5 78.5t-108.5 18.5q-85 0 -114 -35t-29 -127h258v-64h-258q0 -119 26 -154.5t118 -35.5q85 0 114.5 21.5t34.5 84.5z" />
    <glyph glyph-name="guillemotright" unicode="&#xbb;" horiz-adv-x="503" 
d="M312 575l134 -286l-151 -289l-55 36l131 253l-118 251zM127 575l136 -286l-153 -289l-53 36l130 253l-118 251z" />
    <glyph glyph-name="onequarter" unicode="&#xbc;" 
d="M26 405h510v-46h-510v46zM281 632q18 0 31 -13t13 -31t-13.5 -30.5t-30.5 -12.5q-18 0 -31 12t-13 31q0 18 13 31t31 13zM281 219q18 0 31 -13t13 -31t-13 -31t-31 -13t-31 13t-13 31q0 19 12.5 31.5t31.5 12.5z" />
    <glyph glyph-name="onehalf" unicode="&#xbd;" horiz-adv-x="561" 
d="M102 594l177 -178l178 178l34 -34l-178 -178l178 -177l-32 -33l-179 177l-178 -178l-34 34l178 178l-177 177z" />
    <glyph glyph-name="threequarters" unicode="&#xbe;" horiz-adv-x="671" 
d="M156 101v-101h-89v101h89zM380 101v-101h-89v101h89zM604 101v-101h-89v101h89z" />
    <glyph glyph-name="questiondown" unicode="&#xbf;" horiz-adv-x="211" 
d="M214 749v-86h-80v86h80zM73 749v-86h-80v86h80zM142 524v-524h-80v524h80z" />
    <glyph glyph-name="Agrave" unicode="&#xc0;" horiz-adv-x="720" 
d="M26 0l273 749h121l279 -749h-89l-56 154h-378l-60 -154h-90zM527 227l-166 460l-165 -460h331z" />
    <glyph glyph-name="Agrave" unicode="&#x410;" horiz-adv-x="720" 
d="M26 0l273 749h121l279 -749h-89l-56 154h-378l-60 -154h-90zM527 227l-166 460l-165 -460h331z" />
    <glyph glyph-name="Aacute" unicode="&#xc1;" horiz-adv-x="683" 
d="M156 675v-243h250q122 0 172.5 -50.5t50.5 -167.5q0 -114 -51 -164t-170 -50h-335v749h495v-74h-412zM156 357v-282h246q86 0 114.5 30.5t28.5 108.5q0 85 -32 114t-123 29h-234z" />
    <glyph glyph-name="Aacute" unicode="&#x411;" horiz-adv-x="683" 
d="M156 675v-243h250q122 0 172.5 -50.5t50.5 -167.5q0 -114 -51 -164t-170 -50h-335v749h495v-74h-412zM156 357v-282h246q86 0 114.5 30.5t28.5 108.5q0 85 -32 114t-123 29h-234z" />
    <glyph glyph-name="Acircumflex" unicode="&#xc2;" horiz-adv-x="692" 
d="M154 349v-274h231q103 0 135 21q40 27 40 115q0 89 -27 113.5t-113 24.5h-266zM154 675v-253h238q84 0 115 28t31 107q0 68 -24 93t-92 25h-268zM453 0h-382v749h361q99 0 144.5 -42.5t45.5 -142.5q0 -73 -15 -106q-20 -44 -79 -65q70 -19 95 -62q21 -36 21 -116
q0 -107 -41 -158q-46 -57 -150 -57z" />
    <glyph glyph-name="Acircumflex" unicode="&#x412;" horiz-adv-x="692" 
d="M154 349v-274h231q103 0 135 21q40 27 40 115q0 89 -27 113.5t-113 24.5h-266zM154 675v-253h238q84 0 115 28t31 107q0 68 -24 93t-92 25h-268zM453 0h-382v749h361q99 0 144.5 -42.5t45.5 -142.5q0 -73 -15 -106q-20 -44 -79 -65q70 -19 95 -62q21 -36 21 -116
q0 -107 -41 -158q-46 -57 -150 -57z" />
    <glyph glyph-name="Atilde" unicode="&#xc3;" horiz-adv-x="545" 
d="M155 0v673h379v76h-463v-749h84z" />
    <glyph glyph-name="Atilde" unicode="&#x413;" horiz-adv-x="545" 
d="M155 0v673h379v76h-463v-749h84z" />
    <glyph glyph-name="Adieresis" unicode="&#xc4;" horiz-adv-x="743" 
d="M78 74q41 62 58.5 131.5t17.5 157.5v386h509v-675h54v-246h-76v172h-533v-172h-76v246h46zM580 674h-344v-300q0 -113 -13.5 -175t-50.5 -125h408v600z" />
    <glyph glyph-name="Adieresis" unicode="&#x414;" horiz-adv-x="743" 
d="M78 74q41 62 58.5 131.5t17.5 157.5v386h509v-675h54v-246h-76v172h-533v-172h-76v246h46zM580 674h-344v-300q0 -113 -13.5 -175t-50.5 -125h408v600z" />
    <glyph glyph-name="Aring" unicode="&#xc5;" horiz-adv-x="595" 
d="M152 420h381v-73h-381v-272h397v-75h-480v749h482v-74h-399v-255z" />
    <glyph glyph-name="Aring" unicode="&#x415;" horiz-adv-x="595" 
d="M152 420h381v-73h-381v-272h397v-75h-480v749h482v-74h-399v-255z" />
    <glyph glyph-name="AE" unicode="&#xc6;" horiz-adv-x="1122" 
d="M609 749v-327h72l254 327h103l-282 -364l336 -385h-120l-291 348h-72v-348h-84v348h-73l-291 -348h-120l336 385l-282 364h104l253 -327h73v327h84z" />
    <glyph glyph-name="AE" unicode="&#x416;" horiz-adv-x="1122" 
d="M609 749v-327h72l254 327h103l-282 -364l336 -385h-120l-291 348h-72v-348h-84v348h-73l-291 -348h-120l336 385l-282 364h104l253 -327h73v327h84z" />
    <glyph glyph-name="Ccedilla" unicode="&#xc7;" horiz-adv-x="683" 
d="M402 346h-174v73h169q88 0 117.5 26.5t29.5 111.5q0 71 -42.5 98.5t-150.5 27.5q-117 0 -157.5 -30.5t-40.5 -120.5h-81q0 136 69 184q58 40 210 40q150 0 213.5 -42.5t63.5 -146.5q0 -88 -29 -129.5t-96 -51.5q79 -11 110 -56q28 -41 28 -131q0 -114 -66.5 -160.5
t-223.5 -46.5q-171 0 -231.5 43t-60.5 164v25h80v-24q0 -87 39 -111t173 -24q122 0 167 36q39 31 39 110q0 68 -35 100q-38 35 -120 35z" />
    <glyph glyph-name="Ccedilla" unicode="&#x417;" horiz-adv-x="683" 
d="M402 346h-174v73h169q88 0 117.5 26.5t29.5 111.5q0 71 -42.5 98.5t-150.5 27.5q-117 0 -157.5 -30.5t-40.5 -120.5h-81q0 136 69 184q58 40 210 40q150 0 213.5 -42.5t63.5 -146.5q0 -88 -29 -129.5t-96 -51.5q79 -11 110 -56q28 -41 28 -131q0 -114 -66.5 -160.5
t-223.5 -46.5q-171 0 -231.5 43t-60.5 164v25h80v-24q0 -87 39 -111t173 -24q122 0 167 36q39 31 39 110q0 68 -35 100q-38 35 -120 35z" />
    <glyph glyph-name="Egrave" unicode="&#xc8;" horiz-adv-x="785" 
d="M69 749h83v-692l426 692h133v-749h-83v685l-427 -685h-132v749z" />
    <glyph glyph-name="Egrave" unicode="&#x418;" horiz-adv-x="785" 
d="M69 749h83v-692l426 692h133v-749h-83v685l-427 -685h-132v749z" />
    <glyph glyph-name="Eacute" unicode="&#xc9;" horiz-adv-x="782" 
d="M66 749h83v-691l426 691h133v-749h-83v686l-427 -686h-132v749zM471 882q0 -39 -27 -51q-16 -7 -70 -7q-52 0 -69 7q-27 11 -27 51h-57q0 -67 34 -90.5t119 -23.5q91 0 123 22.5t32 91.5h-58z" />
    <glyph glyph-name="Eacute" unicode="&#x419;" horiz-adv-x="782" 
d="M66 749h83v-691l426 691h133v-749h-83v686l-427 -686h-132v749zM471 882q0 -39 -27 -51q-16 -7 -70 -7q-52 0 -69 7q-27 11 -27 51h-57q0 -67 34 -90.5t119 -23.5q91 0 123 22.5t32 91.5h-58z" />
    <glyph glyph-name="Ecircumflex" unicode="&#xca;" horiz-adv-x="699" 
d="M156 749v-327h75l305 327h112l-344 -362l384 -387h-115l-343 348h-74v-348h-83v749h83z" />
    <glyph glyph-name="Ecircumflex" unicode="&#x41a;" horiz-adv-x="699" 
d="M156 749v-327h75l305 327h112l-344 -362l384 -387h-115l-343 348h-74v-348h-83v749h83z" />
    <glyph glyph-name="Edieresis" unicode="&#xcb;" horiz-adv-x="730" 
d="M656 0h-83v673h-362v-454q0 -113 -30 -163q-33 -56 -111 -56h-53v74h20q51 0 69 23q22 28 22 113v538h528v-748z" />
    <glyph glyph-name="Edieresis" unicode="&#x41b;" horiz-adv-x="730" 
d="M656 0h-83v673h-362v-454q0 -113 -30 -163q-33 -56 -111 -56h-53v74h20q51 0 69 23q22 28 22 113v538h528v-748z" />
    <glyph glyph-name="Igrave" unicode="&#xcc;" horiz-adv-x="964" 
d="M217 750l264 -643l266 643h137v-750h-83v689l-283 -689h-72l-285 682v-682h-83v750h139z" />
    <glyph glyph-name="Igrave" unicode="&#x41c;" horiz-adv-x="964" 
d="M217 750l264 -643l266 643h137v-750h-83v689l-283 -689h-72l-285 682v-682h-83v750h139z" />
    <glyph glyph-name="Iacute" unicode="&#xcd;" horiz-adv-x="749" 
d="M155 418h438v330h83v-748h-83v345h-438v-345h-83v748h83v-330z" />
    <glyph glyph-name="Iacute" unicode="&#x41d;" horiz-adv-x="749" 
d="M155 418h438v330h83v-748h-83v345h-438v-345h-83v748h83v-330z" />
    <glyph glyph-name="Icircumflex" unicode="&#xce;" horiz-adv-x="711" 
d="M43 374q0 -236 61.5 -309t252.5 -73q192 0 253.5 72.5t61.5 309.5t-61 310t-252 73q-193 0 -254.5 -72.5t-61.5 -310.5zM127 374q0 203 38 256.5t193 53.5q152 0 191 -54t39 -256q0 -200 -39 -254.5t-191 -54.5t-191.5 54t-39.5 255z" />
    <glyph glyph-name="Icircumflex" unicode="&#x41e;" horiz-adv-x="711" 
d="M43 374q0 -236 61.5 -309t252.5 -73q192 0 253.5 72.5t61.5 309.5t-61 310t-252 73q-193 0 -254.5 -72.5t-61.5 -310.5zM127 374q0 203 38 256.5t193 53.5q152 0 191 -54t39 -256q0 -200 -39 -254.5t-191 -54.5t-191.5 54t-39.5 255z" />
    <glyph glyph-name="Idieresis" unicode="&#xcf;" horiz-adv-x="749" 
d="M72 748h604v-748h-83v673h-438v-673h-83v748z" />
    <glyph glyph-name="Idieresis" unicode="&#x41f;" horiz-adv-x="749" 
d="M72 748h604v-748h-83v673h-438v-673h-83v748z" />
    <glyph glyph-name="Eth" unicode="&#xd0;" horiz-adv-x="667" 
d="M154 293v-293h-83v749h357q101 0 150 -52t49 -163q0 -136 -56 -188.5t-195 -52.5h-222zM154 366h199q109 0 145 25q45 31 45 127q0 88 -27 122.5t-99 34.5h-263v-309z" />
    <glyph glyph-name="Eth" unicode="&#x420;" horiz-adv-x="667" 
d="M154 293v-293h-83v749h357q101 0 150 -52t49 -163q0 -136 -56 -188.5t-195 -52.5h-222zM154 366h199q109 0 145 25q45 31 45 127q0 88 -27 122.5t-99 34.5h-263v-309z" />
    <glyph glyph-name="Ntilde" unicode="&#xd1;" horiz-adv-x="663" 
d="M557 250h81q0 -148 -61 -203t-236 -55t-234 70q-65 77 -65 310q0 232 64 311q60 74 235 74q172 0 233 -59q54 -52 54 -187l-81 1q-11 106 -41 135q-38 37 -165 37q-129 0 -172 -60.5t-43 -251.5t42 -249t173 -58t173.5 37t42.5 148z" />
    <glyph glyph-name="Ntilde" unicode="&#x421;" horiz-adv-x="663" 
d="M557 250h81q0 -148 -61 -203t-236 -55t-234 70q-65 77 -65 310q0 232 64 311q60 74 235 74q172 0 233 -59q54 -52 54 -187l-81 1q-11 106 -41 135q-38 37 -165 37q-129 0 -172 -60.5t-43 -251.5t42 -249t173 -58t173.5 37t42.5 148z" />
    <glyph glyph-name="Ograve" unicode="&#xd2;" horiz-adv-x="601" 
d="M257 0v673h-245v76h572l-1 -76h-242v-673h-84z" />
    <glyph glyph-name="Ograve" unicode="&#x422;" horiz-adv-x="601" 
d="M257 0v673h-245v76h572l-1 -76h-242v-673h-84z" />
    <glyph glyph-name="Oacute" unicode="&#xd3;" horiz-adv-x="660" 
d="M158 73h49q39 0 57 14t32 56l-276 606h90l231 -519l211 519h86l-262 -632q-47 -117 -140 -117h-78v73z" />
    <glyph glyph-name="Oacute" unicode="&#x423;" horiz-adv-x="660" 
d="M158 73h49q39 0 57 14t32 56l-276 606h90l231 -519l211 519h86l-262 -632q-47 -117 -140 -117h-78v73z" />
    <glyph glyph-name="Ocircumflex" unicode="&#xd4;" horiz-adv-x="872" 
d="M477 749h-84v-89h-93q-132 0 -191 -61q-63 -65 -63 -214t61 -212t193 -63h93v-110h84v110h95q131 0 190 61q63 65 63 214q0 148 -61.5 211.5t-191.5 63.5h-95v89zM477 588h87q96 0 136.5 -47.5t40.5 -155.5t-40 -155.5t-137 -47.5h-87v406zM393 588v-406h-87
q-99 0 -138 47t-39 156t38.5 156t138.5 47h87z" />
    <glyph glyph-name="Ocircumflex" unicode="&#x424;" horiz-adv-x="872" 
d="M477 749h-84v-89h-93q-132 0 -191 -61q-63 -65 -63 -214t61 -212t193 -63h93v-110h84v110h95q131 0 190 61q63 65 63 214q0 148 -61.5 211.5t-191.5 63.5h-95v89zM477 588h87q96 0 136.5 -47.5t40.5 -155.5t-40 -155.5t-137 -47.5h-87v406zM393 588v-406h-87
q-99 0 -138 47t-39 156t38.5 156t138.5 47h87z" />
    <glyph glyph-name="Otilde" unicode="&#xd5;" horiz-adv-x="686" 
d="M136 749l212 -320l212 320h100l-246 -361l268 -388h-102l-232 344l-232 -344h-102l268 388l-246 361h100z" />
    <glyph glyph-name="Otilde" unicode="&#x425;" horiz-adv-x="686" 
d="M136 749l212 -320l212 320h100l-246 -361l268 -388h-102l-232 344l-232 -344h-102l268 388l-246 361h100z" />
    <glyph glyph-name="Odieresis" unicode="&#xd6;" horiz-adv-x="754" 
d="M155 749v-674h438v674h83v-674h55v-247h-77v172h-582v749h83z" />
    <glyph glyph-name="Odieresis" unicode="&#x426;" horiz-adv-x="754" 
d="M155 749v-674h438v674h83v-674h55v-247h-77v172h-582v749h83z" />
    <glyph glyph-name="multiply" unicode="&#xd7;" horiz-adv-x="715" 
d="M541 0v352q-50 -13 -113 -15t-113 -2q-153 0 -204 48t-51 191v175h83v-190q0 -99 46 -128q35 -22 146 -22h23q62 0 105 2.5t78 11.5v326h83v-749h-83z" />
    <glyph glyph-name="multiply" unicode="&#x427;" horiz-adv-x="715" 
d="M541 0v352q-50 -13 -113 -15t-113 -2q-153 0 -204 48t-51 191v175h83v-190q0 -99 46 -128q35 -22 146 -22h23q62 0 105 2.5t78 11.5v326h83v-749h-83z" />
    <glyph glyph-name="Oslash" unicode="&#xd8;" horiz-adv-x="1158" 
d="M536 750h83v-676h382v676h83v-750h-1013v750h83v-676h382v676z" />
    <glyph glyph-name="Oslash" unicode="&#x428;" horiz-adv-x="1158" 
d="M536 750h83v-676h382v676h83v-750h-1013v750h83v-676h382v676z" />
    <glyph glyph-name="Ugrave" unicode="&#xd9;" horiz-adv-x="1175" 
d="M537 749h83v-674h381v674h83v-674h53v-247h-74v172h-991v749h83v-674h382v674z" />
    <glyph glyph-name="Ugrave" unicode="&#x429;" horiz-adv-x="1175" 
d="M537 749h83v-674h381v674h83v-674h53v-247h-74v172h-991v749h83v-674h382v674z" />
    <glyph glyph-name="Uacute" unicode="&#xda;" horiz-adv-x="740" 
d="M136 749h83v-317h249q123 0 174 -50t51 -168q0 -113 -52.5 -163.5t-170.5 -50.5h-334v676h-136v73h136zM219 357v-282h247q86 0 114.5 30.5t28.5 108.5q0 85 -33 114t-123 29h-234z" />
    <glyph glyph-name="Uacute" unicode="&#x42a;" horiz-adv-x="740" 
d="M136 749h83v-317h249q123 0 174 -50t51 -168q0 -113 -52.5 -163.5t-170.5 -50.5h-334v676h-136v73h136zM219 357v-282h247q86 0 114.5 30.5t28.5 108.5q0 85 -33 114t-123 29h-234z" />
    <glyph glyph-name="Ucircumflex" unicode="&#xdb;" horiz-adv-x="911" 
d="M75 749h83v-317h250q123 0 173 -50t50 -168q0 -114 -51 -164t-170 -50h-335v749zM158 357v-282h247q85 0 113.5 30.5t28.5 108.5q0 85 -32 114t-123 29h-234zM834 749v-749h-83v749h83z" />
    <glyph glyph-name="Ucircumflex" unicode="&#x42b;" horiz-adv-x="911" 
d="M75 749h83v-317h250q123 0 173 -50t50 -168q0 -114 -51 -164t-170 -50h-335v749zM158 357v-282h247q85 0 113.5 30.5t28.5 108.5q0 85 -32 114t-123 29h-234zM834 749v-749h-83v749h83z" />
    <glyph glyph-name="Udieresis" unicode="&#xdc;" horiz-adv-x="688" 
d="M78 749h83v-317h244q123 0 176 -50t53 -168q0 -114 -51 -164t-170 -50h-335v749zM161 357v-282h246q86 0 114.5 30.5t28.5 108.5q0 82 -29 111q-32 32 -122 32h-238z" />
    <glyph glyph-name="Udieresis" unicode="&#x42c;" horiz-adv-x="688" 
d="M78 749h83v-317h244q123 0 176 -50t53 -168q0 -114 -51 -164t-170 -50h-335v749zM161 357v-282h246q86 0 114.5 30.5t28.5 108.5q0 82 -29 111q-32 32 -122 32h-238z" />
    <glyph glyph-name="Yacute" unicode="&#xdd;" horiz-adv-x="681" 
d="M135 528h-81q0 131 70 182q63 46 217 46q175 0 234 -72q64 -78 64 -312q0 -231 -64 -308q-60 -72 -234 -72q-168 0 -233 52t-65 186h81q0 -99 45.5 -132t171.5 -33q134 0 176 63q37 55 37 219h-341v73h341q0 157 -50 213q-45 50 -163 50q-116 0 -155.5 -30t-50.5 -125z
" />
    <glyph glyph-name="Yacute" unicode="&#x42d;" horiz-adv-x="681" 
d="M135 528h-81q0 131 70 182q63 46 217 46q175 0 234 -72q64 -78 64 -312q0 -231 -64 -308q-60 -72 -234 -72q-168 0 -233 52t-65 186h81q0 -99 45.5 -132t171.5 -33q134 0 176 63q37 55 37 219h-341v73h341q0 157 -50 213q-45 50 -163 50q-116 0 -155.5 -30t-50.5 -125z
" />
    <glyph glyph-name="Thorn" unicode="&#xde;" horiz-adv-x="949" 
d="M149 420h159q0 208 68 277q59 60 226 60q168 0 224 -63q68 -77 68 -319q0 -240 -68 -318q-57 -65 -224 -65t-225 62q-69 73 -69 293h-159v-347h-83v749h83v-329zM602 62q118 0 158 51q50 64 50 262q0 197 -50 260q-40 51 -158 51q-128 0 -166 -50q-44 -59 -44 -261
q0 -203 43 -261q38 -52 167 -52z" />
    <glyph glyph-name="Thorn" unicode="&#x42e;" horiz-adv-x="949" 
d="M149 420h159q0 208 68 277q59 60 226 60q168 0 224 -63q68 -77 68 -319q0 -240 -68 -318q-57 -65 -224 -65t-225 62q-69 73 -69 293h-159v-347h-83v749h83v-329zM602 62q118 0 158 51q50 64 50 262q0 197 -50 260q-40 51 -158 51q-128 0 -166 -50q-44 -59 -44 -261
q0 -203 43 -261q38 -52 167 -52z" />
    <glyph glyph-name="germandbls" unicode="&#xdf;" horiz-adv-x="699" 
d="M541 299h-232l-167 -299h-101l177 310q-76 14 -119 67q-47 58 -47 153q0 115 59.5 167t180.5 52h332v-749h-83v299zM541 371v303h-266q-77 0 -108 -39.5t-31 -122.5q0 -141 179 -141h226z" />
    <glyph glyph-name="germandbls" unicode="&#x42f;" horiz-adv-x="699" 
d="M541 299h-232l-167 -299h-101l177 310q-76 14 -119 67q-47 58 -47 153q0 115 59.5 167t180.5 52h332v-749h-83v299zM541 371v303h-266q-77 0 -108 -39.5t-31 -122.5q0 -141 179 -141h226z" />
    <glyph glyph-name="agrave" unicode="&#xe0;" horiz-adv-x="569" 
d="M424 153q0 68 -32.5 85.5t-142.5 17.5q-65 0 -90 -16q-31 -20 -31 -74q0 -66 27 -90t95 -24q94 0 125 13q49 20 49 88zM423 256v75q0 95 -27 119.5t-126 24.5q-72 0 -98 -15.5t-26 -64.5l1 -15h-81q0 98 59 130q42 23 149 23q122 0 169 -31q60 -39 60 -154v-348h-75l3 66
q-27 -49 -60 -62.5t-116 -13.5q-107 0 -152 30q-55 37 -55 138q0 95 54 130q44 29 146 29q90 0 123.5 -13t51.5 -48z" />
    <glyph glyph-name="agrave" unicode="&#x430;" horiz-adv-x="569" 
d="M424 153q0 68 -32.5 85.5t-142.5 17.5q-65 0 -90 -16q-31 -20 -31 -74q0 -66 27 -90t95 -24q94 0 125 13q49 20 49 88zM423 256v75q0 95 -27 119.5t-126 24.5q-72 0 -98 -15.5t-26 -64.5l1 -15h-81q0 98 59 130q42 23 149 23q122 0 169 -31q60 -39 60 -154v-348h-75l3 66
q-27 -49 -60 -62.5t-116 -13.5q-107 0 -152 30q-55 37 -55 138q0 95 54 130q44 29 146 29q90 0 123.5 -13t51.5 -48z" />
    <glyph glyph-name="aacute" unicode="&#xe1;" horiz-adv-x="569" 
d="M121 432q21 41 59 61.5t100 20.5q137 0 187 -59q46 -54 46 -195q0 -145 -42 -202q-50 -68 -190 -68q-138 0 -188 68q-42 57 -42 202v162q0 132 53.5 196.5t157.5 64.5q97 0 117.5 6.5t20.5 36.5h67q0 -63 -39 -84t-137 -21q-85 0 -123 -35q-47 -43 -47 -154zM283 55
q92 0 122 45q27 41 27 160q0 116 -29.5 152.5t-122.5 36.5q-88 0 -118 -38t-30 -152q0 -118 27 -158q31 -46 124 -46z" />
    <glyph glyph-name="aacute" unicode="&#x431;" horiz-adv-x="569" 
d="M121 432q21 41 59 61.5t100 20.5q137 0 187 -59q46 -54 46 -195q0 -145 -42 -202q-50 -68 -190 -68q-138 0 -188 68q-42 57 -42 202v162q0 132 53.5 196.5t157.5 64.5q97 0 117.5 6.5t20.5 36.5h67q0 -63 -39 -84t-137 -21q-85 0 -123 -35q-47 -43 -47 -154zM283 55
q92 0 122 45q27 41 27 160q0 116 -29.5 152.5t-122.5 36.5q-88 0 -118 -38t-30 -152q0 -118 27 -158q31 -46 124 -46z" />
    <glyph glyph-name="acircumflex" unicode="&#xe2;" horiz-adv-x="561" 
d="M147 243v-180h185q44 0 66 18q27 22 27 72q0 51 -24.5 70.5t-68.5 19.5h-185zM147 463v-159h183q49 0 67.5 17.5t18.5 62.5t-20 62t-66 17h-183zM346 1h-279v524h265q79 0 117 -26q47 -32 47 -109q0 -40 -22 -68q-25 -33 -74 -41q58 -14 83 -50q22 -31 22 -78
q0 -86 -45 -122q-37 -30 -114 -30z" />
    <glyph glyph-name="acircumflex" unicode="&#x432;" horiz-adv-x="561" 
d="M147 243v-180h185q44 0 66 18q27 22 27 72q0 51 -24.5 70.5t-68.5 19.5h-185zM147 463v-159h183q49 0 67.5 17.5t18.5 62.5t-20 62t-66 17h-183zM346 1h-279v524h265q79 0 117 -26q47 -32 47 -109q0 -40 -22 -68q-25 -33 -74 -41q58 -14 83 -50q22 -31 22 -78
q0 -86 -45 -122q-37 -30 -114 -30z" />
    <glyph glyph-name="atilde" unicode="&#xe3;" horiz-adv-x="436" 
d="M67 0v524h353v-64h-273v-460h-80z" />
    <glyph glyph-name="atilde" unicode="&#x433;" horiz-adv-x="436" 
d="M67 0v524h353v-64h-273v-460h-80z" />
    <glyph glyph-name="adieresis" unicode="&#xe4;" horiz-adv-x="559" 
d="M67 64q28 47 39 96.5t11 126.5v237h371v-460h55v-213h-73v149h-378v-149h-73v213h48zM408 64v396h-212v-188q0 -68 -10.5 -118t-34.5 -90h257z" />
    <glyph glyph-name="adieresis" unicode="&#x434;" horiz-adv-x="559" 
d="M67 64q28 47 39 96.5t11 126.5v237h371v-460h55v-213h-73v149h-378v-149h-73v213h48zM408 64v396h-212v-188q0 -68 -10.5 -118t-34.5 -90h257z" />
    <glyph glyph-name="aring" unicode="&#xe5;" horiz-adv-x="559" 
d="M508 247h-377q0 -119 28.5 -156.5t121.5 -37.5t120.5 17.5t27.5 72.5v17h79q0 -105 -58 -141q-46 -29 -169 -29q-132 0 -180.5 57t-48.5 216q0 152 52 211t176 59q122 0 175 -55t53 -191v-40zM429 308q0 91 -32 126.5t-117 35.5t-116.5 -35.5t-31.5 -126.5h297z" />
    <glyph glyph-name="aring" unicode="&#x435;" horiz-adv-x="559" 
d="M508 247h-377q0 -119 28.5 -156.5t121.5 -37.5t120.5 17.5t27.5 72.5v17h79q0 -105 -58 -141q-46 -29 -169 -29q-132 0 -180.5 57t-48.5 216q0 152 52 211t176 59q122 0 175 -55t53 -191v-40zM429 308q0 91 -32 126.5t-117 35.5t-116.5 -35.5t-31.5 -126.5h297z" />
    <glyph glyph-name="ae" unicode="&#xe6;" horiz-adv-x="747" 
d="M414 524v-211h30l165 211h87l-193 -242l234 -282h-94l-199 252h-30v-252h-79v252h-31l-199 -252h-94l234 282l-193 242h87l165 -211h31v211h79z" />
    <glyph glyph-name="ae" unicode="&#x436;" horiz-adv-x="747" 
d="M414 524v-211h30l165 211h87l-193 -242l234 -282h-94l-199 252h-30v-252h-79v252h-31l-199 -252h-94l234 282l-193 242h87l165 -211h31v211h79z" />
    <glyph glyph-name="ccedilla" unicode="&#xe7;" horiz-adv-x="543" 
d="M321 239h-118v64h118q39 0 60.5 19.5t21.5 66.5q0 41 -22 59q-28 23 -103 23q-78 0 -102 -12q-32 -16 -32 -69v-9h-76v9q0 84 55 117q46 27 150 27q113 0 163 -35q46 -32 46 -104q0 -43 -20 -75q-24 -39 -71 -47q54 -8 79 -43q21 -29 21 -76q0 -90 -46.5 -127t-166.5 -37
q-134 0 -180 36t-46 133h76q0 -67 25 -86.5t117 -19.5q90 0 116 19.5t26 79.5q0 44 -21.5 65.5t-69.5 21.5z" />
    <glyph glyph-name="ccedilla" unicode="&#x437;" horiz-adv-x="543" 
d="M321 239h-118v64h118q39 0 60.5 19.5t21.5 66.5q0 41 -22 59q-28 23 -103 23q-78 0 -102 -12q-32 -16 -32 -69v-9h-76v9q0 84 55 117q46 27 150 27q113 0 163 -35q46 -32 46 -104q0 -43 -20 -75q-24 -39 -71 -47q54 -8 79 -43q21 -29 21 -76q0 -90 -46.5 -127t-166.5 -37
q-134 0 -180 36t-46 133h76q0 -67 25 -86.5t117 -19.5q90 0 116 19.5t26 79.5q0 44 -21.5 65.5t-69.5 21.5z" />
    <glyph glyph-name="egrave" unicode="&#xe8;" horiz-adv-x="578" 
d="M65 0v524h79v-429l269 429h97v-524h-79v426l-267 -426h-20h-79z" />
    <glyph glyph-name="egrave" unicode="&#x438;" horiz-adv-x="578" 
d="M65 0v524h79v-429l269 429h97v-524h-79v426l-267 -426h-20h-79z" />
    <glyph glyph-name="eacute" unicode="&#xe9;" horiz-adv-x="577" 
d="M65 0v524h79v-428l268 428h98v-524h-79v427l-267 -427h-20h-79zM356 665h49q0 -57 -25.5 -77.5t-92.5 -20.5t-92.5 20t-25.5 78h49q0 -31 15 -40.5t54 -9.5t52 8q17 11 17 42z" />
    <glyph glyph-name="eacute" unicode="&#x439;" horiz-adv-x="577" 
d="M65 0v524h79v-428l268 428h98v-524h-79v427l-267 -427h-20h-79zM356 665h49q0 -57 -25.5 -77.5t-92.5 -20.5t-92.5 20t-25.5 78h49q0 -31 15 -40.5t54 -9.5t52 8q17 11 17 42z" />
    <glyph glyph-name="ecircumflex" unicode="&#xea;" horiz-adv-x="524" 
d="M163 524v-211h31l189 211h96l-223 -241l264 -283h-104l-222 252h-31v-252h-80v524h80z" />
    <glyph glyph-name="ecircumflex" unicode="&#x43a;" horiz-adv-x="524" 
d="M163 524v-211h31l189 211h96l-223 -241l264 -283h-104l-222 252h-31v-252h-80v524h80z" />
    <glyph glyph-name="edieresis" unicode="&#xeb;" horiz-adv-x="533" 
d="M470 524h-384v-371q0 -56 -14 -72t-59 -16h-12v-65h39q69 0 100 44q26 37 26 107v310h224v-461h80v524z" />
    <glyph glyph-name="edieresis" unicode="&#x43b;" horiz-adv-x="533" 
d="M470 524h-384v-371q0 -56 -14 -72t-59 -16h-12v-65h39q69 0 100 44q26 37 26 107v310h224v-461h80v524z" />
    <glyph glyph-name="igrave" unicode="&#xec;" horiz-adv-x="726" 
d="M362 91l174 433h127v-524h-79v455l-187 -455h-70l-186 455v-455h-79v524h126z" />
    <glyph glyph-name="igrave" unicode="&#x43c;" horiz-adv-x="726" 
d="M362 91l174 433h127v-524h-79v455l-187 -455h-70l-186 455v-455h-79v524h126z" />
    <glyph glyph-name="iacute" unicode="&#xed;" horiz-adv-x="569" 
d="M66 524h80v-214h275v214h80v-524h-80v246h-275v-246h-80v524z" />
    <glyph glyph-name="iacute" unicode="&#x43d;" horiz-adv-x="569" 
d="M66 524h80v-214h275v214h80v-524h-80v246h-275v-246h-80v524z" />
    <glyph glyph-name="icircumflex" unicode="&#xee;" horiz-adv-x="563" 
d="M513 262q0 -162 -49 -217t-183 -55q-132 0 -181 55.5t-49 215.5q0 161 48.5 216.5t181.5 55.5t182.5 -55t49.5 -216zM432 262q0 129 -29.5 167.5t-121.5 38.5q-91 0 -120 -39t-29 -168q0 -128 29.5 -167t119.5 -39q91 0 121 38.5t30 168.5z" />
    <glyph glyph-name="icircumflex" unicode="&#x43e;" horiz-adv-x="563" 
d="M513 262q0 -162 -49 -217t-183 -55q-132 0 -181 55.5t-49 215.5q0 161 48.5 216.5t181.5 55.5t182.5 -55t49.5 -216zM432 262q0 129 -29.5 167.5t-121.5 38.5q-91 0 -120 -39t-29 -168q0 -128 29.5 -167t119.5 -39q91 0 121 38.5t30 168.5z" />
    <glyph glyph-name="idieresis" unicode="&#xef;" horiz-adv-x="567" 
d="M65 524h435v-524h-80v460h-275v-460h-80v524z" />
    <glyph glyph-name="idieresis" unicode="&#x43f;" horiz-adv-x="567" 
d="M65 524h435v-524h-80v460h-275v-460h-80v524z" />
    <glyph glyph-name="eth" unicode="&#xf0;" horiz-adv-x="573" 
d="M148 265q0 -120 22 -159q29 -51 121 -51q99 0 127 51q21 38 21 159q0 118 -18 152q-28 52 -126 52q-100 0 -127 -47q-20 -35 -20 -157zM148 60v-286h-80v750h78l-3 -67q28 43 69 60t98 17q132 0 176 -72q34 -55 34 -198q0 -139 -32 -196q-44 -78 -170 -78q-61 0 -96 12
q-47 16 -74 58z" />
    <glyph glyph-name="eth" unicode="&#x440;" horiz-adv-x="573" 
d="M148 265q0 -120 22 -159q29 -51 121 -51q99 0 127 51q21 38 21 159q0 118 -18 152q-28 52 -126 52q-100 0 -127 -47q-20 -35 -20 -157zM148 60v-286h-80v750h78l-3 -67q28 43 69 60t98 17q132 0 176 -72q34 -55 34 -198q0 -139 -32 -196q-44 -78 -170 -78q-61 0 -96 12
q-47 16 -74 58z" />
    <glyph glyph-name="ntilde" unicode="&#xf1;" horiz-adv-x="550" 
d="M426 190h77q0 -118 -53 -161q-48 -39 -173 -39q-131 0 -178 57t-47 214q0 156 46.5 214t176.5 58q109 0 159 -32q60 -38 60 -131v-17h-76q0 66 -25 89q-29 26 -118 26q-88 0 -115 -38t-27 -167q0 -127 28.5 -167.5t115.5 -40.5q92 0 120.5 26.5t28.5 108.5z" />
    <glyph glyph-name="ntilde" unicode="&#x441;" horiz-adv-x="550" 
d="M426 190h77q0 -118 -53 -161q-48 -39 -173 -39q-131 0 -178 57t-47 214q0 156 46.5 214t176.5 58q109 0 159 -32q60 -38 60 -131v-17h-76q0 66 -25 89q-29 26 -118 26q-88 0 -115 -38t-27 -167q0 -127 28.5 -167.5t115.5 -40.5q92 0 120.5 26.5t28.5 108.5z" />
    <glyph glyph-name="ograve" unicode="&#xf2;" horiz-adv-x="458" 
d="M188 0h80v460h181v64h-442v-64h181v-460z" />
    <glyph glyph-name="ograve" unicode="&#x442;" horiz-adv-x="458" 
d="M188 0h80v460h181v64h-442v-64h181v-460z" />
    <glyph glyph-name="oacute" unicode="&#xf3;" horiz-adv-x="469" 
d="M373 524h81l-161 -594q-26 -96 -61.5 -131.5t-97.5 -35.5q-25 0 -45 6v64q15 -4 30 -4q45 0 64.5 29t50.5 142h-34l-191 524h80l164 -466z" />
    <glyph glyph-name="oacute" unicode="&#x443;" horiz-adv-x="469" 
d="M373 524h81l-161 -594q-26 -96 -61.5 -131.5t-97.5 -35.5q-25 0 -45 6v64q15 -4 30 -4q45 0 64.5 29t50.5 142h-34l-191 524h80l164 -466z" />
    <glyph glyph-name="ocircumflex" unicode="&#xf4;" horiz-adv-x="825" 
d="M371 -226v308q-18 -43 -59 -68t-92 -25q-110 0 -145 78q-24 53 -24 198q0 146 26 197q36 71 150 71q49 0 84.5 -19t59.5 -62v298h80v-298q25 42 61.5 61.5t86.5 19.5q109 0 145 -71q27 -53 27 -197t-25 -198q-36 -78 -147 -78q-49 0 -89.5 25.5t-58.5 69.5v-310h-80z
M132 282q0 -126 22 -173q26 -55 98 -55q70 0 96 54q23 49 23 172q0 100 -26 144t-93 44q-70 0 -97 -47q-23 -41 -23 -139zM690 282q0 99 -23 139q-27 47 -98 47q-67 0 -92.5 -44t-25.5 -144q0 -124 22 -171q26 -55 96 -55q71 0 96 52t25 176z" />
    <glyph glyph-name="ocircumflex" unicode="&#x444;" horiz-adv-x="825" 
d="M371 -226v308q-18 -43 -59 -68t-92 -25q-110 0 -145 78q-24 53 -24 198q0 146 26 197q36 71 150 71q49 0 84.5 -19t59.5 -62v298h80v-298q25 42 61.5 61.5t86.5 19.5q109 0 145 -71q27 -53 27 -197t-25 -198q-36 -78 -147 -78q-49 0 -89.5 25.5t-58.5 69.5v-310h-80z
M132 282q0 -126 22 -173q26 -55 98 -55q70 0 96 54q23 49 23 172q0 100 -26 144t-93 44q-70 0 -97 -47q-23 -41 -23 -139zM690 282q0 99 -23 139q-27 47 -98 47q-67 0 -92.5 -44t-25.5 -144q0 -124 22 -171q26 -55 96 -55q71 0 96 52t25 176z" />
    <glyph glyph-name="otilde" unicode="&#xf5;" horiz-adv-x="476" 
d="M442 524h-92l-119 -192l-119 192h-92l167 -250l-187 -274h96l135 212l135 -212h96l-187 274z" />
    <glyph glyph-name="otilde" unicode="&#x445;" horiz-adv-x="476" 
d="M442 524h-92l-119 -192l-119 192h-92l167 -250l-187 -274h96l135 212l135 -212h96l-187 274z" />
    <glyph glyph-name="odieresis" unicode="&#xf6;" horiz-adv-x="583" 
d="M147 525v-461h274v461h80v-461h55v-213h-73v149h-416v525h80z" />
    <glyph glyph-name="odieresis" unicode="&#x446;" horiz-adv-x="583" 
d="M147 525v-461h274v461h80v-461h55v-213h-73v149h-416v525h80z" />
    <glyph glyph-name="divide" unicode="&#xf7;" horiz-adv-x="548" 
d="M476 525v-525h-80v271h-4q-18 -26 -47.5 -35t-106.5 -9q-87 0 -127 32q-43 35 -43 115v151h80v-133q0 -62 22 -81t91 -19q51 0 81 5.5t54 18.5v209h80z" />
    <glyph glyph-name="divide" unicode="&#x447;" horiz-adv-x="548" 
d="M476 525v-525h-80v271h-4q-18 -26 -47.5 -35t-106.5 -9q-87 0 -127 32q-43 35 -43 115v151h80v-133q0 -62 22 -81t91 -19q51 0 81 5.5t54 18.5v209h80z" />
    <glyph glyph-name="oslash" unicode="&#xf8;" horiz-adv-x="871" 
d="M802 0h-734v524h80v-460h247v460h80v-460h247v460h80v-524z" />
    <glyph glyph-name="oslash" unicode="&#x448;" horiz-adv-x="871" 
d="M802 0h-734v524h80v-460h247v460h80v-460h247v460h80v-524z" />
    <glyph glyph-name="ugrave" unicode="&#xf9;" horiz-adv-x="871" 
d="M784 0h-716v524h80v-460h247v460h80v-460h247v460h80v-460h56v-213h-74v149z" />
    <glyph glyph-name="ugrave" unicode="&#x449;" horiz-adv-x="871" 
d="M784 0h-716v524h80v-460h247v460h80v-460h247v460h80v-460h56v-213h-74v149z" />
    <glyph glyph-name="uacute" unicode="&#xfa;" horiz-adv-x="585" 
d="M109 0h271q69 0 108 35q46 41 46 122q0 84 -44 123q-39 34 -110 34h-192v210h-183v-64h104v-460zM188 64v185h163q57 0 79.5 -19.5t22.5 -73.5q0 -52 -22 -72t-78 -20h-165z" />
    <glyph glyph-name="uacute" unicode="&#x44a;" horiz-adv-x="585" 
d="M109 0h271q69 0 108 35q46 41 46 122q0 84 -44 123q-39 34 -110 34h-192v210h-183v-64h104v-460zM188 64v185h163q57 0 79.5 -19.5t22.5 -73.5q0 -52 -22 -72t-78 -20h-165z" />
    <glyph glyph-name="ucircumflex" unicode="&#xfb;" horiz-adv-x="721" 
d="M65 -1h272q69 0 108 35q45 40 45 122q0 84 -44 123q-38 34 -109 34h-193v211h-79v-525zM144 64v185h163q57 0 79.5 -19.5t22.5 -73.5q0 -52 -22 -72t-78 -20h-165zM589 -1h80v525h-80v-525z" />
    <glyph glyph-name="ucircumflex" unicode="&#x44b;" horiz-adv-x="721" 
d="M65 -1h272q69 0 108 35q45 40 45 122q0 84 -44 123q-38 34 -109 34h-193v211h-79v-525zM144 64v185h163q57 0 79.5 -19.5t22.5 -73.5q0 -52 -22 -72t-78 -20h-165zM589 -1h80v525h-80v-525z" />
    <glyph glyph-name="udieresis" unicode="&#xfc;" horiz-adv-x="543" 
d="M68 0h272q69 0 108 35q45 40 45 121q0 84 -44 123q-38 34 -109 34h-192v211h-80v-524zM148 64v185h162q57 0 79.5 -19.5t22.5 -73.5q0 -52 -22 -72t-77 -20h-165z" />
    <glyph glyph-name="udieresis" unicode="&#x44c;" horiz-adv-x="543" 
d="M68 0h272q69 0 108 35q45 40 45 121q0 84 -44 123q-38 34 -109 34h-192v211h-80v-524zM148 64v185h162q57 0 79.5 -19.5t22.5 -73.5q0 -52 -22 -72t-77 -20h-165z" />
    <glyph glyph-name="yacute" unicode="&#xfd;" horiz-adv-x="560" 
d="M140 380h-75q11 90 65 124q47 29 154 29q128 0 176 -56t48 -213q0 -161 -45 -218t-179 -57q-128 0 -181 45q-47 40 -47 126h78q5 -63 34.5 -85.5t115.5 -22.5q90 0 116.5 38.5t26.5 156.5h-225v64h225q0 92 -27 124q-30 35 -116 35q-81 0 -108.5 -17t-35.5 -73z" />
    <glyph glyph-name="yacute" unicode="&#x44d;" horiz-adv-x="560" 
d="M140 380h-75q11 90 65 124q47 29 154 29q128 0 176 -56t48 -213q0 -161 -45 -218t-179 -57q-128 0 -181 45q-47 40 -47 126h78q5 -63 34.5 -85.5t115.5 -22.5q90 0 116.5 38.5t26.5 156.5h-225v64h225q0 92 -27 124q-30 35 -116 35q-81 0 -108.5 -17t-35.5 -73z" />
    <glyph glyph-name="thorn" unicode="&#xfe;" horiz-adv-x="786" 
d="M148 311h124q0 129 49.5 175.5t180.5 46.5q133 0 180 -50q53 -57 53 -221q0 -165 -52 -221q-47 -51 -181 -51q-132 0 -179 49q-51 54 -51 208h-124v-247h-80v524h80v-213zM654 262q0 127 -29 166.5t-123 39.5q-93 0 -121 -38.5t-28 -168.5q0 -131 27.5 -168.5
t121.5 -37.5q95 0 123.5 37.5t28.5 169.5z" />
    <glyph glyph-name="thorn" unicode="&#x44e;" horiz-adv-x="786" 
d="M148 311h124q0 129 49.5 175.5t180.5 46.5q133 0 180 -50q53 -57 53 -221q0 -165 -52 -221q-47 -51 -181 -51q-132 0 -179 49q-51 54 -51 208h-124v-247h-80v524h80v-213zM654 262q0 127 -29 166.5t-123 39.5q-93 0 -121 -38.5t-28 -168.5q0 -131 27.5 -168.5
t121.5 -37.5q95 0 123.5 37.5t28.5 169.5z" />
    <glyph glyph-name="ydieresis" unicode="&#xff;" horiz-adv-x="536" 
d="M470 524h-272q-69 0 -109 -34q-46 -40 -46 -122q0 -60 34 -102q31 -39 75 -45l-114 -221h90l104 211h158v-211h80v524zM390 460v-185h-164q-58 0 -80 19t-22 74q0 50 23 71t77 21h166z" />
    <glyph glyph-name="ydieresis" unicode="&#x44f;" horiz-adv-x="536" 
d="M470 524h-272q-69 0 -109 -34q-46 -40 -46 -122q0 -60 34 -102q31 -39 75 -45l-114 -221h90l104 211h158v-211h80v524zM390 460v-185h-164q-58 0 -80 19t-22 74q0 50 23 71t77 21h166z" />
    <glyph glyph-name="endash" unicode="&#x2013;" horiz-adv-x="687" 
d="M44 310h599v-73h-599v73z" />
    <glyph glyph-name="emdash" unicode="&#x2014;" horiz-adv-x="783" 
d="M0 310h783v-73h-783v73z" />
    <glyph glyph-name="quoteleft" unicode="&#x2018;" horiz-adv-x="202" 
d="M48 537v110q0 53 13 74q18 29 64 29l22 -1v-43q-49 0 -49 -53l1 -14h37v-102h-88z" />
    <glyph glyph-name="quoteright" unicode="&#x2019;" horiz-adv-x="196" 
d="M147 749v-110q0 -53 -13 -74q-18 -29 -64 -29l-22 1v43q49 0 49 53l-1 14h-37v102h88z" />
    <glyph glyph-name="quotesinglbase" unicode="&#x201a;" horiz-adv-x="200" 
d="M153 103v-110q0 -53 -13 -74q-18 -29 -64 -29l-22 1v42q49 0 49 53l-1 14h-37v103h88z" />
    <glyph glyph-name="quotedblleft" unicode="&#x201c;" horiz-adv-x="350" 
d="M205 537v110q0 51 14 74q18 29 64 29l22 -1v-43q-28 0 -38.5 -11.5t-10.5 -41.5l1 -14h37v-102h-89zM47 537v110q0 53 13 74q18 29 65 29l22 -1v-43q-28 0 -39 -12t-11 -41l1 -14h37v-102h-88z" />
    <glyph glyph-name="quotedblright" unicode="&#x201d;" horiz-adv-x="350" 
d="M148 749v-110q0 -51 -14 -74q-18 -29 -64 -29l-22 1v43q28 0 38.5 11.5t10.5 41.5l-1 14h-37v102h89zM306 749v-110q0 -53 -13 -74q-18 -29 -65 -29l-22 1v43q28 0 39 12t11 41l-1 14h-37v102h88z" />
    <glyph glyph-name="quotedblbase" unicode="&#x201e;" horiz-adv-x="358" 
d="M154 103v-110q0 -53 -13 -74q-18 -29 -65 -29l-22 1v42q28 0 38.5 11.5t10.5 41.5l-1 14h-37v103h89zM311 103v-110q0 -53 -13 -74q-18 -29 -65 -29l-22 1v42q28 0 39 12t11 41l-1 14h-37v103h88z" />
    <glyph glyph-name="bullet" unicode="&#x2022;" horiz-adv-x="674" 
d="M223 321q0 45 31.5 76.5t76.5 31.5q46 0 78 -31t32 -77q0 -45 -32.5 -76.5t-77.5 -31.5t-76.5 31.5t-31.5 76.5z" />
    <glyph glyph-name="ellipsis" unicode="&#x2026;" horiz-adv-x="671" 
d="M157 101v-101h-90v101h90zM380 101v-101h-89v101h89zM604 101v-101h-89v101h89z" />
    <glyph glyph-name="guilsinglleft" unicode="&#x2039;" horiz-adv-x="320" 
d="M192 575l57 -35l-118 -251l131 -253l-55 -36l-150 289z" />
    <glyph glyph-name="guilsinglright" unicode="&#x203a;" horiz-adv-x="308" 
d="M128 575l134 -286l-151 -289l-54 36l130 253l-118 251z" />
    <glyph glyph-name="trademark" unicode="&#x2122;" horiz-adv-x="826" 
d="M142 352v355h-129v41h301v-41h-128v-355h-44zM427 748l140 -339l141 339h72v-396h-44v364l-150 -364h-38l-150 361v-361h-44v396h73z" />
  </font>
</defs>
</svg>
